<svg xmlns="http://www.w3.org/2000/svg" viewBox="0 0 400 300" width="406" height="306" class="illustration styles_illustrationTablet__1DWOa"><g id="_42_biker" data-name="#42_biker"><path d="M229.09,148.79a1,1,0,0,1-.15-2,4.35,4.35,0,0,0,2.64-1.74c.86-1.28,1-3.11.48-5.44-1.72-7.38-9.53-6.6-9.87-6.56a1,1,0,0,1-.34-2l28.76-6.79a.94.94,0,0,1,.78.14c.33.21,8,5.33,8,11.49,0,2.89-1.6,5.48-4.83,7.68a1,1,0,0,1-1.13-1.65c2.64-1.81,4-3.83,4-6,0-4.44-5.34-8.58-6.76-9.6l-23.11,5.46a9.7,9.7,0,0,1,6.48,7.36c.68,2.91.41,5.28-.79,7a6.33,6.33,0,0,1-4,2.57Z" fill="#d1d3d4"></path><path d="M149.87,70.65l-38,15s2.6-31.73,5.1-34a9.89,9.89,0,0,0,1.79-1.81,6,6,0,0,0,.75-2.23,28.63,28.63,0,0,0,.34-7.45,2.85,2.85,0,0,0-.68-1.92,2.94,2.94,0,0,0-2.09-.51A16.25,16.25,0,0,0,109.79,39c-2.93,1.5-2.88,2.81-4.2,5.83-2.13,4.89-7,28.38-8.39,37.49-.47,3.26-3.89,18.54-.29,20.92,5.92,3.92,58.68-19.69,58.68-19.69" fill="#fff"></path><path d="M99,104.08a4.16,4.16,0,0,1-2.3-.47c-2.94-1.94-1.86-10.45-.26-19.36.16-.86.29-1.55.35-2,1.42-9.65,6.3-32.74,8.42-37.6.26-.58.46-1.1.64-1.56.78-2,1.26-3.21,3.77-4.5a16.79,16.79,0,0,1,7.5-1.36,3.39,3.39,0,0,1,2.4.63,3.25,3.25,0,0,1,.83,2.22,29.56,29.56,0,0,1-.35,7.57,6.69,6.69,0,0,1-.81,2.4,7.25,7.25,0,0,1-1.42,1.5l-.45.4c-1.7,1.57-3.83,20.32-4.89,33L149.7,70.22a.46.46,0,1,1,.33.85l-38,15a.47.47,0,0,1-.44-.06.47.47,0,0,1-.18-.4c.27-3.27,2.68-32,5.24-34.34l.47-.42a6.64,6.64,0,0,0,1.25-1.3,6.07,6.07,0,0,0,.68-2.07,28.65,28.65,0,0,0,.34-7.34,2.56,2.56,0,0,0-.54-1.62,2.59,2.59,0,0,0-1.77-.38A15.88,15.88,0,0,0,110,39.39c-2.21,1.14-2.59,2.1-3.34,4-.18.47-.39,1-.65,1.59-2,4.66-7,27.83-8.35,37.37-.07.47-.2,1.17-.36,2-.81,4.52-3,16.55-.14,18.43,4.68,3.09,43.63-13.19,58.24-19.73a.46.46,0,0,1,.61.23.45.45,0,0,1-.23.6C153.79,84.84,110.64,104.08,99,104.08Z" fill="#231f20"></path><path d="M192.7,91c2.93,3.94,12,7.73,18.18,10.58,16.07,7.45,36.32,13.51,39.58,15.6s6.52,9.55,5.82,11.18-6.29,5.59-7.22,3.73-7.22-11.32-8.38-11.6a92.24,92.24,0,0,1-40.53-9.13c-21-10.25-24.57-14.86-24.57-14.86S188,84.64,192.7,91Z" fill="#fff"></path><path d="M250,133.05a1.39,1.39,0,0,1-1.34-.74c-1-2.05-7-10.94-8.09-11.36-.11,0-.72,0-1.35,0A91.12,91.12,0,0,1,200,111.79c-20.82-10.18-24.58-14.79-24.73-15a.46.46,0,0,1,0-.61c.34-.32,8.38-8,14.13-7.49a5,5,0,0,1,3.68,2h0c2.5,3.38,9.78,6.7,15.64,9.36l2.36,1.09c9.2,4.26,19.92,8.12,27.74,10.94,6.07,2.19,10.46,3.77,11.9,4.69,3.3,2.12,6.86,9.72,6,11.74-.61,1.44-4.49,4.43-6.64,4.49Zm-73.76-36.5c1.19,1.18,6.54,5.82,24.12,14.42a90.4,90.4,0,0,0,38.87,9,9.55,9.55,0,0,1,1.56.07c1.49.35,7.89,10.24,8.69,11.83,0,.08.1.25.56.24,1.76,0,5.33-2.77,5.83-3.94s-2.41-8.53-5.65-10.61c-1.35-.87-5.92-2.52-11.71-4.6-7.84-2.83-18.58-6.69-27.81-11l-2.36-1.09c-6-2.71-13.35-6.08-16-9.64a4,4,0,0,0-3-1.68C184.6,89.22,177.8,95.12,176.23,96.55Z" fill="#231f20"></path><path d="M201.08,94.69c-3-.9-5.51-4.8-7.31-7.13-2.7-3.49-4.77-7.35-7.32-10.88-5.56-7.72-15.13-11.89-24.58-12-19.61-.18-43.34,13.49-43.34,14.14l2.67,24.93,15.26-6.66a171.71,171.71,0,0,1,2.67,41.36c5.36-.23,39.4-11,39.4-11,1.07-5.14,2.37-17.81,3.38-24.06l8.91,8.31Z" fill="#1370E7"></path><path d="M197.77,221.42a1,1,0,0,1-.75-.34,1,1,0,0,1,.09-1.41l19.26-17.07a1,1,0,1,1,1.33,1.49l-19.26,17.07A1,1,0,0,1,197.77,221.42Z" fill="#d1d3d4"></path><path d="M199.16,190.77s-2.68,8.15-2.16,8.16c4.06,0,22,4.21,28,1.78s-13.43-9.07-13.43-9.07Z" fill="#231f20"></path><path d="M219.38,201.91a114.47,114.47,0,0,1-15.87-1.71,65.58,65.58,0,0,0-6.51-.83.55.55,0,0,1-.4-.21c-.14-.2-.45-.63,2.14-8.53a.43.43,0,0,1,.45-.3l12.37.87.11,0c2.47.85,14.78,5.21,14.87,8.28q0,1-1.41,1.62A16.22,16.22,0,0,1,219.38,201.91Zm-22-3.41c1.31.07,3.53.41,6.26.83,6.79,1,17.06,2.64,21.15,1,.4-.16.87-.43.86-.78,0-1.79-8.33-5.42-14.22-7.44l-12-.85A74,74,0,0,0,197.39,198.5Zm0,.27h0Z" fill="#231f20"></path><path d="M192.93,132.6s35.07,13.63,36.12,19.57-17.52,39.47-17.52,39.47l-12.37-.87c-.88,5.09,9.67-34.19,9.86-34.42C193.71,155.13,171,143.84,171,143.84" fill="#fff"></path><path d="M211.53,192.1h0l-11.94-.85c-.23.49-.36.46-.54.42-.46-.11-.38-.57-.31-1a.45.45,0,0,1,.28-.34c1-3,4.4-15.4,6.74-23.9,1.73-6.28,2.4-8.71,2.69-9.69-15.22-1.44-37.44-12.4-37.67-12.51a.46.46,0,1,1,.41-.82c.22.11,22.85,11.27,37.9,12.47a.46.46,0,0,1,.39.28.47.47,0,0,1,0,.37c-.15.42-1.4,4.93-2.83,10.14-4.26,15.49-5.91,21.43-6.7,23.67l11.36.8c6.43-11.63,18.13-34.37,17.33-38.91S202.45,136.79,192.77,133a.44.44,0,0,1-.26-.59.46.46,0,0,1,.59-.26c.09,0,8.88,3.46,17.69,7.57,18,8.4,18.53,11.37,18.71,12.35,1.06,6-16.81,38.4-17.57,39.77A.46.46,0,0,1,211.53,192.1Z" fill="#231f20"></path><path d="M273.16,269.77a49.36,49.36,0,1,1,49.35-49.35A49.41,49.41,0,0,1,273.16,269.77Zm0-93.71a44.36,44.36,0,1,0,44.35,44.36A44.41,44.41,0,0,0,273.16,176.06Z" fill="#1370E7"></path><path d="M273.16,265.53a45.11,45.11,0,1,1,45.11-45.11A45.16,45.16,0,0,1,273.16,265.53Zm0-88.22a43.11,43.11,0,1,0,43.11,43.11A43.15,43.15,0,0,0,273.16,177.31Z" fill="#231f20"></path><path d="M273.16,221.42a1,1,0,0,1-.94-.65L237,129.32a1,1,0,0,1,1.87-.71l35.2,91.45a1,1,0,0,1-.57,1.29A1.15,1.15,0,0,1,273.16,221.42Z" fill="#d1d3d4"></path><path d="M126.84,269.77a49.36,49.36,0,1,1,49.36-49.35A49.41,49.41,0,0,1,126.84,269.77Zm0-93.71a44.36,44.36,0,1,0,44.36,44.36A44.41,44.41,0,0,0,126.84,176.06Z" fill="#1370E7"></path><path d="M126.84,265.53A45.11,45.11,0,1,1,172,220.42,45.17,45.17,0,0,1,126.84,265.53Zm0-88.22A43.11,43.11,0,1,0,170,220.42,43.15,43.15,0,0,0,126.84,177.31Z" fill="#231f20"></path><path d="M197.77,221.42H126.84a1,1,0,0,1-.83-1.56l40-60.52a1,1,0,0,1,.72-.44l79.53-9.07a1,1,0,0,1,1,.49,1,1,0,0,1,0,1.08L198.59,221A1,1,0,0,1,197.77,221.42Zm-69.07-2h68.55l47-67.35-76.86,8.77Z" fill="#d1d3d4"></path><path d="M178.2,238.06a1,1,0,0,1-.76-.35,1,1,0,0,1,.11-1.41l19-16.14L155.3,136.83a1,1,0,0,1,.45-1.34,1,1,0,0,1,1.34.45l41.58,84a1,1,0,0,1-.25,1.21l-19.57,16.64A1,1,0,0,1,178.2,238.06Z" fill="#d1d3d4"></path><path d="M197.77,231.71A12.25,12.25,0,1,1,210,219.46,12.27,12.27,0,0,1,197.77,231.71Zm0-22.5A10.25,10.25,0,1,0,208,219.46,10.26,10.26,0,0,0,197.77,209.21Z" fill="#231f20"></path><path d="M126.84,225a5.54,5.54,0,1,1,5.54-5.54A5.55,5.55,0,0,1,126.84,225Zm0-9.08a3.54,3.54,0,1,0,3.54,3.54A3.55,3.55,0,0,0,126.84,215.92Z" fill="#231f20"></path><path d="M126.84,215.42a.5.5,0,0,1-.49-.46.49.49,0,0,1,.45-.54l70.93-6.71a.5.5,0,0,1,.09,1l-70.93,6.71Z" fill="#231f20"></path><path d="M197.77,231.21h0L126.8,224.5a.5.5,0,0,1,.09-1l70.93,6.71a.5.5,0,0,1,.45.55A.49.49,0,0,1,197.77,231.21Z" fill="#231f20"></path><path d="M150,260.47l-.56,7.87s39.49,6.08,36.14.71-21.79-10.51-21.79-10.51Z" fill="#231f20"></path><path d="M178.67,271.68c-10,0-26.74-2.51-29.26-2.9a.45.45,0,0,1-.38-.47l.57-7.87A.44.44,0,0,1,150,260l13.79-1.93a.37.37,0,0,1,.18,0c.76.21,18.64,5.25,22,10.71a1.29,1.29,0,0,1,.07,1.48C185.39,271.31,182.53,271.68,178.67,271.68ZM149.94,268c13,2,33.82,4.2,35.38,1.84,0-.06.12-.19-.09-.53-3.1-5-20.06-9.9-21.44-10.3l-13.34,1.88Z" fill="#231f20"></path><path d="M151.2,177.86s-9,7.71-5,37,3.81,45.6,3.81,45.6l13.79-1.93,6.14-81.8Z" fill="#fff"></path><path d="M150,260.93a.46.46,0,0,1-.45-.47c0-.16.12-16.6-3.81-45.52-4-29.22,4.75-37.11,5.13-37.43a.39.39,0,0,1,.27-.11l18.76-1.12a.44.44,0,0,1,.35.13.49.49,0,0,1,.13.36l-6.13,81.8a.47.47,0,0,1-.39.42l-13.79,1.93Zm1.36-82.63c-1,1-8.38,9.6-4.72,36.51,3.56,26.12,3.81,42.09,3.82,45.13l12.9-1.81,6.07-80.91Z" fill="#231f20"></path><path d="M139.13,138.48S137,141,137.5,149.27c.74,11.57,2.89,25.84,4.11,33.16l31.14-3.78.95-24.33,21.75,2.28,8-23-24.93-6.15Z" fill="#231f20"></path><path d="M141.61,182.87a.44.44,0,0,1-.44-.37c-.75-4.54-3.29-20.34-4.11-33.2-.54-8.4,1.64-11,1.74-11.11a.36.36,0,0,1,.21-.13l39.4-11a.45.45,0,0,1,.23,0l24.92,6.15a.46.46,0,0,1,.29.22.43.43,0,0,1,0,.35l-8,23a.45.45,0,0,1-.47.29l-21.28-2.24-.93,23.86a.42.42,0,0,1-.38.42l-31.15,3.79Zm-2.21-44c-.36.53-1.92,3.28-1.46,10.38.8,12.45,3.2,27.69,4,32.7l30.36-3.68.93-24a.44.44,0,0,1,.15-.32.44.44,0,0,1,.33-.1l21.41,2.25,7.73-22.23-24.34-6Z" fill="#231f20"></path><path d="M181.87,242.6a1,1,0,0,1-.62-.22L172,235.05a1,1,0,0,1,1.24-1.57l9.26,7.34a1,1,0,0,1-.62,1.78Z" fill="#d1d3d4"></path><path d="M222.92,204.34h-.11l-16.95-1.92a1,1,0,1,1,.23-2L223,202.35a1,1,0,0,1-.11,2Z" fill="#d1d3d4"></path><path d="M169.94,68l-1.69,9.8s-2,4.25-8.33,1.6-6.52-7.33-6.52-7.33l3.81-18.15s4.57-2.12,4.87-12.9c0,0,9.61,4.77,19.55,5.13,0,0-1.81,12-3.44,16.9S169.94,68,169.94,68Z" fill="#fff"></path><path d="M163.7,80.78a10.18,10.18,0,0,1-4-.91c-6.52-2.75-6.83-7.57-6.84-7.77a.53.53,0,0,1,0-.13l3.81-18.15a.55.55,0,0,1,.29-.37s4.29-2.18,4.57-12.44a.52.52,0,0,1,.75-.45c.1,0,9.63,4.73,19.34,5.07a.58.58,0,0,1,.38.19.54.54,0,0,1,.11.41c-.08.49-1.84,12.05-3.45,17-1.49,4.54-6.74,5.2-8.31,5.29l-1.62,9.38a.57.57,0,0,1,0,.14A5.56,5.56,0,0,1,163.7,80.78Zm-9.78-8.67c.05.55.62,4.45,6.2,6.81,5.41,2.28,7.37-.8,7.64-1.29l1.68-9.71a.51.51,0,0,1,.5-.43c.06,0,6.28-.08,7.76-4.6,1.39-4.24,3-13.82,3.33-16.25-8.18-.43-16.09-3.75-18.46-4.82-.44,9.06-3.94,11.84-4.9,12.44Zm14.33,5.69h0Z" fill="#231f20"></path><path d="M154.88,49.56a17.51,17.51,0,0,1,.57-8.64c.5-1.38.87-2.32,2.4-2s3.05,1.35,4.76,1.57c2,.25,1,1.65.58,3.07s-.9,3-1.44,4.53-1.53,5.33-3.38,6C155.88,55.05,154.88,49.56,154.88,49.56Z" fill="#fff"></path><path d="M157.82,54.75a2,2,0,0,1-1.16-.38c-1.54-1.07-2.18-4.15-2.28-4.72h0a18,18,0,0,1,.59-8.91c.5-1.36,1-2.76,3-2.3a14.21,14.21,0,0,1,2.14.75,10.09,10.09,0,0,0,2.57.81,1.8,1.8,0,0,1,1.45.75,2.52,2.52,0,0,1-.18,2.17c-.09.26-.19.53-.27.8-.45,1.63-.92,3.13-1.44,4.57l-.27.8c-.64,1.93-1.61,4.85-3.42,5.52A2.12,2.12,0,0,1,157.82,54.75Zm-.57-15.36c-.62,0-.86.45-1.32,1.71a17,17,0,0,0-.54,8.37h0c.17.93.85,3.49,2,4.12a1,1,0,0,0,.84.06c1.35-.5,2.25-3.24,2.8-4.88.1-.31.19-.59.28-.82.51-1.42,1-2.89,1.42-4.5.08-.29.19-.59.29-.87.18-.48.4-1.08.27-1.29,0,0-.17-.19-.7-.26a10.74,10.74,0,0,1-2.83-.88,14.31,14.31,0,0,0-2-.7A2.24,2.24,0,0,0,157.25,39.39Z" fill="#231f20"></path><path d="M160.39,53.91a4.33,4.33,0,0,0-1.07-2.53,7.81,7.81,0,0,0-2.11-1.53,3.12,3.12,0,0,0-1.34-.47,2.59,2.59,0,0,0-1,.18A3.39,3.39,0,0,0,153,51a3.94,3.94,0,0,0-.39,1.86,7.54,7.54,0,0,0,.18,2.07,5.25,5.25,0,0,0,6.43,3.83" fill="#fff"></path><path d="M157.93,59.41A5.76,5.76,0,0,1,152.32,55a8.12,8.12,0,0,1-.2-2.21,4.57,4.57,0,0,1,.46-2.1,3.79,3.79,0,0,1,2.13-1.63,3.14,3.14,0,0,1,1.18-.22,3.72,3.72,0,0,1,1.57.54A8,8,0,0,1,159.7,51a4.86,4.86,0,0,1,1.21,2.83.51.51,0,0,1-.48.55.5.5,0,0,1-.55-.47,3.86,3.86,0,0,0-.95-2.23,7.47,7.47,0,0,0-2-1.42,2.91,2.91,0,0,0-1.11-.41,2,2,0,0,0-.79.16,2.91,2.91,0,0,0-1.58,1.16,3.65,3.65,0,0,0-.33,1.62,7.35,7.35,0,0,0,.17,1.94,4.74,4.74,0,0,0,5.79,3.46.51.51,0,1,1,.27,1A5.55,5.55,0,0,1,157.93,59.41Z" fill="#231f20"></path><path d="M171.93,52.88s2.8,5.59,1.86,6.38-3.15-.1-3.15-.1" fill="#fff"></path><path d="M172.65,60.08a6.82,6.82,0,0,1-2.19-.45.5.5,0,0,1,.37-.93c.63.25,2.11.62,2.64.18.25-.44-.67-3.15-2-5.78a.49.49,0,0,1,.22-.67.5.5,0,0,1,.67.22c1.11,2.22,2.81,6.08,1.74,7A2.27,2.27,0,0,1,172.65,60.08Z" fill="#231f20"></path><path d="M171.59,62.05l-4.38-1s-1.2,3,1,4.27S171.59,62.05,171.59,62.05Z" fill="#fff"></path><path d="M168.91,66a2,2,0,0,1-1-.28c-2-1.17-1.63-3.7-1.16-4.89a.51.51,0,0,1,.57-.3l4.38,1a.5.5,0,0,1,.32.23.49.49,0,0,1,0,.39c-.09.31-.9,3.08-2.48,3.72A1.79,1.79,0,0,1,168.91,66Zm-1.36-4.39c-.22.78-.49,2.46.87,3.24a.82.82,0,0,0,.79.09c.77-.31,1.42-1.69,1.73-2.56Z" fill="#231f20"></path><path d="M161.05,48.69l.17-.92.2,0c.59,0,20.81,3.59,22,4.06a.32.32,0,0,1,.2.39l-.15.8a.38.38,0,0,1-.26.32,1.19,1.19,0,0,0-.56.48c-.1.15-.18.3-.26.45-.28.58-.54,1.16-.83,1.73a3.49,3.49,0,0,1-2.74,2,5.21,5.21,0,0,1-2.65-.3,4.22,4.22,0,0,1-2.7-2.73A10.38,10.38,0,0,1,173,53a4.31,4.31,0,0,0-.24-.87.51.51,0,0,0-.27-.25,3.23,3.23,0,0,0-.63-.16.48.48,0,0,0-.52.22,5.84,5.84,0,0,0-.45.76,6.19,6.19,0,0,1-1.39,2,3.86,3.86,0,0,1-2.44,1.25,5.07,5.07,0,0,1-1,0,5.87,5.87,0,0,1-2.8-.93,2.42,2.42,0,0,1-1.12-1.44,15.26,15.26,0,0,1-.45-2.93,1.92,1.92,0,0,0-.32-1A1.55,1.55,0,0,1,161.05,48.69Z" fill="#231f20"></path><path d="M169.94,68s-5.06-1-7.15-2.83c0,0,.83,6.17,6,8.71Z" fill="#231f20"></path><path d="M168.83,74.38a.59.59,0,0,1-.22,0c-5.39-2.63-6.27-8.83-6.31-9.09a.49.49,0,0,1,.82-.44c2,1.73,6.87,2.71,6.92,2.72a.49.49,0,0,1,.39.58L169.32,74a.5.5,0,0,1-.27.35A.43.43,0,0,1,168.83,74.38Zm-5.27-8.06a11.39,11.39,0,0,0,4.91,6.8l.89-4.73A22.7,22.7,0,0,1,163.56,66.32Z" fill="#231f20"></path><polygon points="161.42 47.75 153.75 46.83 153.75 47.75 162.71 50.02 161.42 47.75" fill="#231f20"></polygon><path d="M155.16,36.39a11.31,11.31,0,0,0,0,6c2.11,2,18.91,6.7,27.42,7.69a4.52,4.52,0,0,0,1.57-2.58Z" fill="#fff"></path><path d="M182.58,50.6h-.06c-8.64-1-25.47-5.75-27.71-7.82a.63.63,0,0,1-.16-.27,11.73,11.73,0,0,1,0-6.3.48.48,0,0,1,.27-.29.52.52,0,0,1,.39,0l29,11.12a.52.52,0,0,1,.33.57,5.07,5.07,0,0,1-1.77,2.9A.51.51,0,0,1,182.58,50.6Zm-27-8.5c2.34,1.8,18.18,6.4,26.79,7.44a4,4,0,0,0,1.11-1.72l-28-10.75A12,12,0,0,0,155.63,42.1Z" fill="#231f20"></path><path d="M184.15,47.5a37.78,37.78,0,0,1-18.37-3.27,30.25,30.25,0,0,1-13.15-12.68s9.61-4.29,19-2.28C183.17,31.77,186.05,40,184.15,47.5Z" fill="#fff"></path><path d="M181.46,48.13a37.85,37.85,0,0,1-15.9-3.44,30.39,30.39,0,0,1-13.39-12.92.51.51,0,0,1,0-.4.51.51,0,0,1,.27-.29c.4-.18,9.87-4.34,19.28-2.31C177,29.91,181,32.4,183.19,36a15,15,0,0,1,1.46,11.67.5.5,0,0,1-.44.38A25.07,25.07,0,0,1,181.46,48.13Zm2.69-.63h0ZM153.36,31.81a30,30,0,0,0,12.64,12A37.66,37.66,0,0,0,183.74,47a13.88,13.88,0,0,0-1.43-10.52c-2.08-3.36-5.73-5.62-10.83-6.72C163.61,28.08,155.45,31,153.36,31.81Z" fill="#231f20"></path><path d="M180.79,44.44a.49.49,0,0,1-.48-.36A21.41,21.41,0,0,0,169.26,32a.5.5,0,0,1,.41-.91,22,22,0,0,1,11.6,12.71.51.51,0,0,1-.34.62Z" fill="#d1d3d4"></path><path d="M174,43a.48.48,0,0,1-.45-.27,20.17,20.17,0,0,0-14.42-9.59.51.51,0,0,1-.42-.57.5.5,0,0,1,.57-.42,20.79,20.79,0,0,1,15.16,10.13.49.49,0,0,1-.22.67A.44.44,0,0,1,174,43Z" fill="#d1d3d4"></path><line x1="121.2" y1="103.23" x2="151.72" y2="91.02" fill="#fff"></line><path d="M121.2,103.69a.46.46,0,0,1-.17-.88l30.52-12.22a.46.46,0,0,1,.34.85l-30.52,12.21A.38.38,0,0,1,121.2,103.69Z" fill="#231f20"></path><path d="M149.63,245a.44.44,0,0,1-.43-.38.43.43,0,0,1,.37-.5l15.88-2.39a.45.45,0,0,1,.51.37.44.44,0,0,1-.38.5L149.7,245Z" fill="#231f20"></path><path d="M217.84,179.13c-1,0-4.07-.39-14.6-1.7a.44.44,0,1,1,.11-.88c5.57.7,14,1.73,14.57,1.77a.39.39,0,0,1,.23.05.44.44,0,0,1,.18.59C218.28,179.06,218.24,179.13,217.84,179.13Z" fill="#231f20"></path><path d="M119.93,40.46l-.11,3.83a1.32,1.32,0,0,1-.83,1.42l-1.81,1a22,22,0,0,1-3.67,1.82,10.73,10.73,0,0,1-5.12.48,1,1,0,0,1-.6-.24,1,1,0,0,1-.18-.67,14,14,0,0,1,.82-4.81" fill="#fff"></path><path d="M110,49.63a11.31,11.31,0,0,1-1.64-.12,1.19,1.19,0,0,1-1.17-1.36,14.27,14.27,0,0,1,.85-5,.46.46,0,0,1,.59-.27.45.45,0,0,1,.27.58,13.18,13.18,0,0,0-.79,4.65.9.9,0,0,0,.05.37.79.79,0,0,0,.34.1,10.46,10.46,0,0,0,4.9-.46A21.09,21.09,0,0,0,117,46.36l1.81-1a1.41,1.41,0,0,0,.48-.36,1.36,1.36,0,0,0,.12-.67l.11-3.83a.47.47,0,0,1,.47-.44.45.45,0,0,1,.45.47l-.12,3.82a2.13,2.13,0,0,1-.27,1.15,2.1,2.1,0,0,1-.78.65l-1.81,1A21.47,21.47,0,0,1,113.66,49,11.1,11.1,0,0,1,110,49.63Z" fill="#231f20"></path><path d="M173.7,154.76h-.08a.44.44,0,0,1-.36-.51c0-.12,2-12.39,1.88-19.94a.45.45,0,0,1,.43-.46.42.42,0,0,1,.45.44c.16,7.64-1.87,20-1.89,20.11A.43.43,0,0,1,173.7,154.76Z" fill="#fff"></path><path d="M144.49,179.2a.44.44,0,0,1-.44-.37c0-.24-4-24-2.1-38.78a.44.44,0,0,1,.88.11c-1.83,14.68,2,38.29,2.09,38.53a.44.44,0,0,1-.36.51Z" fill="#fff"></path><path d="M200,135.93l-.12,0-18-5.16a.43.43,0,0,1-.3-.54.44.44,0,0,1,.55-.31l18,5.16a.45.45,0,0,1,.31.55A.46.46,0,0,1,200,135.93Z" fill="#fff"></path><path d="M144.49,148.7a.44.44,0,0,1-.44-.38.45.45,0,0,1,.38-.5c.27,0,6.6-1,8.66-10.6a.44.44,0,0,1,.52-.34.45.45,0,0,1,.34.53c-2.19,10.2-9.11,11.25-9.4,11.29Z" fill="#fff"></path></g></svg>