<svg id="Layer_1" data-name="Layer 1" xmlns="http://www.w3.org/2000/svg" viewBox="0 0 400 300" width="406" height="306" class="illustration styles_illustrationTablet__1DWOa"><title>#42 biker </title><rect x="195.79" y="207.29" width="18.13" height="5.85" transform="translate(-82.13 148.61) rotate(-33.63)" fill="#ffd200"></rect><path d="M198.61,155.35l-4.14,2.79a13.68,13.68,0,0,0-4.92,16.7l10.38,24.36,7-2.48-2.07-33.41Z" fill="#f4a28c"></path><path d="M198.61,155.35l-4.14,2.79a13.68,13.68,0,0,0-4.92,16.7l10.38,24.36,7-2.48-2.07-33.41Z" opacity="0.08"></path><path d="M198.75,196.28s.49,6.64-4.48,9.38-4.07,8.4,1.16,7.65S210,201.23,210,201.23l-3.66-7.31Z" fill="#1370E7"></path><polygon points="217.3 142.12 197.35 153.75 204.85 163.31 225.05 142.76 217.3 142.12" fill="#24285b"></polygon><path d="M106.92,149.55S94,148,94,153.69s2.65,12.92,16.5,4.81Z" fill="#24285b"></path><path d="M161.19,67.23s-17,1.48-19.21,18.57,5.17,50.74,5.17,50.74l-40.94,13.11,3.58,8.94,39.85-4.34a22,22,0,0,0,18.21-14.09C176,118.66,187.88,76.49,161.19,67.23Z" fill="#f4a28c"></path><path d="M161.19,67.23s-17,1.48-19.21,18.57,5.17,50.74,5.17,50.74l-40.94,13.11,3.58,8.94,39.85-4.34a22,22,0,0,0,18.21-14.09C176,118.66,187.88,76.49,161.19,67.23Z" opacity="0.08"></path><ellipse cx="206.78" cy="257.8" rx="133.31" ry="16.87" fill="#e6e6e6" opacity="0.45"></ellipse><path d="M120,53.9s.68,7.93,2.89,12.89a4,4,0,0,0,5.3,2c2.49-1.15,5.51-3.43,5.66-7.72L135,53.82a7.15,7.15,0,0,0-4.41-7C125.66,44.43,119.38,49.1,120,53.9Z" fill="#f4a28c"></path><polygon points="131.59 54.55 153.8 68.18 145.42 79.88 132.94 65.64 131.59 54.55" fill="#f4a28c"></polygon><path d="M119.57,53.83a7.58,7.58,0,0,0,2.47.06,31.83,31.83,0,0,0,7.12-1.81,6.64,6.64,0,0,0,1.25,7.17c3.1,3.33,8.23-.38,8.23-.38l-3.31-8.66A8.11,8.11,0,0,0,130,43.8a27.89,27.89,0,0,0-3.64-1.06" fill="#24285b"></path><path d="M129.53,59.16s-.47-3,1.84-3.19,3,4.21,0,5.15Z" fill="#f4a28c"></path><path d="M120.72,58.87l-1.66,3.4a1.27,1.27,0,0,0,1.13,1.83l3.1.05Z" fill="#f4a28c"></path><path d="M132.94,65.63s1.71-2.37,1.26-4.71c0,0,5.12,2.52,2.67,9.2Z" fill="#ce8172" opacity="0.31"></path><path d="M114.29,52.47A3.47,3.47,0,0,0,118,55.93a30.06,30.06,0,0,0,10.77-2.59c3.27-1.56,5.73-2.85,7.38-3.75a2.46,2.46,0,0,0,.77-3.65h0a4.6,4.6,0,0,1-.38-5.06l.33-.59a.82.82,0,0,0-.71-1.23C131.19,39,114.44,39.92,114.29,52.47Z" fill="#ffd200"></path><path d="M128,53.7a23.29,23.29,0,0,0,3.2,13.19l1.3-.54a23.72,23.72,0,0,1-3-13.36Z" fill="#fff"></path><path d="M132.94,51.28s2.42,9.39-2.75,10.88l.47,1.12s5.83-.75,3.42-12.59Z" fill="#fff"></path><path d="M264,257.26A32.26,32.26,0,1,1,296.25,225,32.29,32.29,0,0,1,264,257.26Zm0-60.36A28.11,28.11,0,1,0,292.1,225,28.14,28.14,0,0,0,264,196.9Z" fill="#1370E7"></path><path d="M149.85,259a32.26,32.26,0,1,1,32.26-32.25A32.29,32.29,0,0,1,149.85,259Zm0-60.36A28.11,28.11,0,1,0,178,226.75,28.14,28.14,0,0,0,149.85,198.64Z" fill="#1370E7"></path><path d="M149.85,262a35.27,35.27,0,1,1,35.27-35.27A35.31,35.31,0,0,1,149.85,262Zm0-66a30.74,30.74,0,1,0,30.74,30.74A30.77,30.77,0,0,0,149.85,196Z" fill="#24285b"></path><path d="M264,260.28A35.28,35.28,0,1,1,299.27,225,35.32,35.32,0,0,1,264,260.28Zm0-66A30.74,30.74,0,1,0,294.73,225,30.77,30.77,0,0,0,264,194.27Z" fill="#24285b"></path><path d="M142.68,72.76s6-18.16,38.31-12.82,68.63,32.8,69.1,71.88l-30.44,13.3s-16.75-24.89-42.57-17.44S121.29,107,142.68,72.76Z" fill="#1370E7"></path><path d="M265.25,225.19l-28-42.14a1.53,1.53,0,0,0-1.14-.67l7.72-20.45a1.51,1.51,0,0,0-2.83-1.07l-5.45,14.45c-19.89-7.22-53.66-8.12-61-8.23a37.78,37.78,0,0,0,.07-4.79,4.06,4.06,0,0,0-4.06-4H161a11.12,11.12,0,0,0-7.95,3.22,8.34,8.34,0,0,0-2.4,7.34c1.11,7.1,6.81,9.69,9.24,9.78a1.51,1.51,0,1,0,.12-3c-.82,0-5.48-1.5-6.38-7.23a5.29,5.29,0,0,1,1.58-4.76,8.1,8.1,0,0,1,5.79-2.31h9.52a1,1,0,0,1,.74.31,1,1,0,0,1,.29.74.71.71,0,0,0,0,.14c0,.25,1.67,25.46-23,59.85a1.51,1.51,0,0,0,1.23,2.39,1.49,1.49,0,0,0,1.23-.63c11.57-16.15,17.5-30.22,20.52-40.85L217,227.12h0a1.5,1.5,0,0,0,1,.43H264a1.51,1.51,0,0,0,1.25-2.35Zm-91-55.09c6.65.11,40.83,1,60.25,8l-17.05,45.2-45-43.47A79.11,79.11,0,0,0,174.27,170.1Zm46,54.42,14.83-39.32,26.09,39.32Z" fill="#1370E7"></path><path d="M265.25,225.19l-28-42.14a1.53,1.53,0,0,0-1.14-.67l7.72-20.45a1.51,1.51,0,0,0-2.83-1.07l-5.45,14.45c-19.89-7.22-53.66-8.12-61-8.23a37.78,37.78,0,0,0,.07-4.79,4.06,4.06,0,0,0-4.06-4H161a11.12,11.12,0,0,0-7.95,3.22,8.34,8.34,0,0,0-2.4,7.34c1.11,7.1,6.81,9.69,9.24,9.78a1.51,1.51,0,1,0,.12-3c-.82,0-5.48-1.5-6.38-7.23a5.29,5.29,0,0,1,1.58-4.76,8.1,8.1,0,0,1,5.79-2.31h9.52a1,1,0,0,1,.74.31,1,1,0,0,1,.29.74.71.71,0,0,0,0,.14c0,.25,1.67,25.46-23,59.85a1.51,1.51,0,0,0,1.23,2.39,1.49,1.49,0,0,0,1.23-.63c11.57-16.15,17.5-30.22,20.52-40.85L217,227.12h0a1.5,1.5,0,0,0,1,.43H264a1.51,1.51,0,0,0,1.25-2.35Zm-91-55.09c6.65.11,40.83,1,60.25,8l-17.05,45.2-45-43.47A79.11,79.11,0,0,0,174.27,170.1Zm46,54.42,14.83-39.32,26.09,39.32Z" fill="#fff" opacity="0.26"></path><rect x="232.33" y="155.35" width="28.85" height="6.05" rx="2.61" ry="2.61" fill="#ffd200"></rect><path d="M185.77,76s36.74,12.5,48.75,62.62l-14.87,6.49s-6-8.14-12.62-12.22-14.29-17-14.29-17Z" opacity="0.08"></path><path d="M212.23,235.9a11.75,11.75,0,0,1-11.74-11.76,11.75,11.75,0,0,1,12.65-11.73l56.53,4.3a8.21,8.21,0,0,1-.22,16.38l-56.62,2.79Zm0-21.68a9.92,9.92,0,1,0,.52,19.82l56.62-2.79a6.36,6.36,0,0,0,.17-12.7L213,214.25Q212.61,214.22,212.22,214.22Z" fill="#24285b"></path><path d="M182.4,72.76C168.52,61.12,148,76,155.07,92.66c.14.32.29.64.44,1,7.4,15.56,31.88,39.81,31.88,39.81l-27.28,33.23,7.86,5.57L199.09,147a22,22,0,0,0,7.65-21.72C203.33,109.49,196,84.15,182.4,72.76Z" fill="#f4a28c"></path><path d="M160.11,166.67s-11.63,5.71-8.6,10.48,9.23,9.41,16.46-4.91Z" fill="#24285b"></path><path d="M250.09,131.82s7.85,20.52-6,23.37c-8.75,1.79-19.72,9.52-26.61,15a15.22,15.22,0,0,0-5.69,13.75l2.79,23.39-8.12,1.89-7.06-21.29A30.85,30.85,0,0,1,209,154.43l11.82-9.8Z" fill="#f4a28c"></path><path d="M219.65,145.12l30.44-13.3S262.31,153.6,240,157.51c0,0-16.65,6.88-19.76,12l-15.41-13A42,42,0,0,1,219.65,145.12Z" fill="#24285b"></path><circle cx="215.4" cy="225.17" r="3.89" fill="#24285b"></circle><path d="M206.7,208.69s-.27,6.65-5.53,8.8-5,7.88.28,7.73S217.3,214.9,217.3,214.9l-2.8-7.68Z" fill="#1370E7"></path><rect x="203.6" y="219.04" width="18.13" height="5.85" transform="translate(-87.33 154.91) rotate(-33.63)" fill="#ffd200"></rect><rect x="53.9" y="90.2" width="60.68" height="30.98" fill="#e6e6e6"></rect><path d="M76,102.91a6.06,6.06,0,1,0-11.23,3.15h0L70,114.53l5.15-8.43h0A6.09,6.09,0,0,0,76,102.91ZM70,106.12a3,3,0,1,1,3-3A3,3,0,0,1,70,106.12Z" fill="#a5a5a5"></path><rect x="82.78" y="98.54" width="21.98" height="4.38" fill="#a5a5a5" opacity="0.58"></rect><rect x="82.78" y="106.79" width="21.98" height="4.38" fill="#a5a5a5" opacity="0.23"></rect><rect x="82.55" y="138" width="23" height="13.41" transform="translate(77.88 -27.12) rotate(27.64)" fill="#ffd200"></rect></svg>